<?xml version="1.0" encoding="UTF-8" standalone="no"?>
<!-- Created with Inkscape (http://www.inkscape.org/) -->

<svg
   xmlns:dc="http://purl.org/dc/elements/1.1/"
   xmlns:cc="http://creativecommons.org/ns#"
   xmlns:rdf="http://www.w3.org/1999/02/22-rdf-syntax-ns#"
   xmlns:svg="http://www.w3.org/2000/svg"
   xmlns="http://www.w3.org/2000/svg"
   xmlns:sodipodi="http://sodipodi.sourceforge.net/DTD/sodipodi-0.dtd"
   xmlns:inkscape="http://www.inkscape.org/namespaces/inkscape"
   width="210mm"
   height="297mm"
   viewBox="0 0 210 297"
   version="1.1"
   id="svg8"
   inkscape:version="0.92.2 (5c3e80d, 2017-08-06)"
   sodipodi:docname="EXPO.svg">
  <defs
     id="defs2" />
  <sodipodi:namedview
     id="base"
     pagecolor="#ffffff"
     bordercolor="#666666"
     borderopacity="1.0"
     inkscape:pageopacity="0.0"
     inkscape:pageshadow="2"
     inkscape:zoom="15.839192"
     inkscape:cx="16.711114"
     inkscape:cy="1111.8701"
     inkscape:document-units="mm"
     inkscape:current-layer="text817"
     showgrid="false"
     inkscape:window-width="1366"
     inkscape:window-height="719"
     inkscape:window-x="0"
     inkscape:window-y="25"
     inkscape:window-maximized="1" />
  <metadata
     id="metadata5">
    <rdf:RDF>
      <cc:Work
         rdf:about="">
        <dc:format>image/svg+xml</dc:format>
        <dc:type
           rdf:resource="http://purl.org/dc/dcmitype/StillImage" />
        <dc:title></dc:title>
      </cc:Work>
    </rdf:RDF>
  </metadata>
  <g
     inkscape:label="Capa 1"
     inkscape:groupmode="layer"
     id="layer1">
    <g
       aria-label="EXPO
"
       transform="matrix(0.72279208,0,0,1.3835237,-42.544266,-127.29446)"
       style="font-style:normal;font-variant:normal;font-weight:bold;font-stretch:normal;font-size:4.77817345px;line-height:1.25;font-family:sans-serif;-inkscape-font-specification:'sans-serif, Bold';font-variant-ligatures:normal;font-variant-caps:normal;font-variant-numeric:normal;font-feature-settings:normal;text-align:start;letter-spacing:0px;word-spacing:0px;writing-mode:lr-tb;text-anchor:start;fill:#000000;fill-opacity:1;stroke:none;stroke-width:0.11945422"
       id="text817">
      <path
         d="m 58.867359,92.066429 h 2.424083 v 0.67893 H 59.7656 v 0.6486 h 1.434852 v 0.678929 H 59.7656 v 0.797918 h 1.57717 v 0.67893 h -2.475411 z"
         style="font-style:normal;font-variant:normal;font-weight:bold;font-stretch:normal;font-size:4.77817345px;font-family:sans-serif;-inkscape-font-specification:'sans-serif, Bold';font-variant-ligatures:normal;font-variant-caps:normal;font-variant-numeric:normal;font-feature-settings:normal;text-align:start;writing-mode:lr-tb;text-anchor:start;stroke-width:0.11945422"
         id="path1372"
         inkscape:connector-curvature="0" />
      <path
         d="m 64.074822,93.77192 1.208541,1.777816 h -0.93557 l -0.814249,-1.189877 -0.80725,1.189877 H 61.786058 L 62.9946,93.77192 61.83272,92.066429 h 0.937903 l 0.762921,1.122217 0.760588,-1.122217 h 0.94257 z"
         style="font-style:normal;font-variant:normal;font-weight:bold;font-stretch:normal;font-size:4.77817345px;font-family:sans-serif;-inkscape-font-specification:'sans-serif, Bold';font-variant-ligatures:normal;font-variant-caps:normal;font-variant-numeric:normal;font-feature-settings:normal;text-align:start;writing-mode:lr-tb;text-anchor:start;stroke-width:0.11945422"
         id="path1374"
         inkscape:connector-curvature="0" />
      <path
         d="m 65.819975,92.066429 h 1.490846 q 0.664931,0 1.019561,0.296303 0.356963,0.293969 0.356963,0.839913 0,0.548277 -0.356963,0.844579 -0.35463,0.29397 -1.019561,0.29397 h -0.592606 v 1.208542 h -0.89824 z m 0.89824,0.650933 v 0.972899 h 0.496949 q 0.261306,0 0.403625,-0.125987 0.142319,-0.12832 0.142319,-0.361629 0,-0.233309 -0.142319,-0.359296 -0.142319,-0.125987 -0.403625,-0.125987 z"
         style="font-style:normal;font-variant:normal;font-weight:bold;font-stretch:normal;font-size:4.77817345px;font-family:sans-serif;-inkscape-font-specification:'sans-serif, Bold';font-variant-ligatures:normal;font-variant-caps:normal;font-variant-numeric:normal;font-feature-settings:normal;text-align:start;writing-mode:lr-tb;text-anchor:start;stroke-width:0.11945422"
         id="path1376"
         inkscape:connector-curvature="0" />
      <path
         d="m 70.910782,92.654368 q -0.410624,0 -0.636934,0.303302 -0.22631,0.303302 -0.22631,0.853912 0,0.548277 0.22631,0.851579 0.22631,0.303302 0.636934,0.303302 0.412958,0 0.639268,-0.303302 0.22631,-0.303302 0.22631,-0.851579 0,-0.55061 -0.22631,-0.853912 -0.22631,-0.303302 -0.639268,-0.303302 z m 0,-0.650933 q 0.839914,0 1.315865,0.480617 0.47595,0.480618 0.47595,1.32753 0,0.84458 -0.47595,1.325197 -0.475951,0.480617 -1.315865,0.480617 -0.83758,0 -1.315864,-0.480617 -0.475951,-0.480617 -0.475951,-1.325197 0,-0.846912 0.475951,-1.32753 0.478284,-0.480617 1.315864,-0.480617 z"
         style="font-style:normal;font-variant:normal;font-weight:bold;font-stretch:normal;font-size:4.77817345px;font-family:sans-serif;-inkscape-font-specification:'sans-serif, Bold';font-variant-ligatures:normal;font-variant-caps:normal;font-variant-numeric:normal;font-feature-settings:normal;text-align:start;writing-mode:lr-tb;text-anchor:start;stroke-width:0.11945422"
         id="path1378"
         inkscape:connector-curvature="0" />
    </g>
  </g>
</svg>
